<?xml version="1.0" encoding="UTF-8" standalone="no"?>
<!DOCTYPE svg PUBLIC "-//W3C//DTD SVG 1.1//EN" "http://www.w3.org/Graphics/SVG/1.1/DTD/svg11.dtd">
<svg version="1.1" xmlns="http://www.w3.org/2000/svg" xmlns:xlink="http://www.w3.org/1999/xlink" preserveAspectRatio="xMidYMid meet" viewBox="0 0 380 380" width="120" height="120"><defs><path d="M274.89 339.65C274.89 338.87 275.52 338.24 276.31 338.24C279.94 338.24 274.89 338.24 274.89 338.24C285.72 338.24 294.5 329.46 294.5 318.63C294.5 303.32 294.5 265.03 294.5 203.77C294.5 203.77 294.5 203.77 294.5 203.77C288.14 180.13 254.61 180.13 248.25 203.77C248.25 203.77 248.25 203.77 248.25 203.77L248.25 181.09C248.25 181.09 248.25 181.09 248.25 181.09C241.82 157.16 207.92 157.02 201.29 180.89C201.28 180.92 201.26 180.98 201.23 181.09L201.23 168.34C201.23 168.34 201.23 168.34 201.23 168.34C194.82 144.48 161.01 144.38 154.44 168.19C154.44 168.21 154.43 168.26 154.4 168.34L155.56 112.59C155.56 112.59 155.56 112.59 155.56 112.59C149.2 88.95 115.66 88.95 109.31 112.59C109.31 112.59 109.31 112.59 109.31 112.59C109.31 175.99 109.31 215.62 109.31 231.47C109.31 234.25 108.14 236.9 106.08 238.77C99.73 244.55 99.11 245.11 96.56 247.43C83.87 258.96 81.84 278.17 91.82 292.1C98.44 301.33 112.41 320.83 121.94 334.12C123.86 336.8 124.89 340.01 124.89 343.3C124.89 349.29 124.89 361.71 124.89 367.58C124.89 370.71 127.42 373.24 130.55 373.24C159.42 373.24 240.93 373.24 269.94 373.24C272.68 373.24 274.89 371.02 274.89 368.29C274.89 362.28 274.89 346.37 274.89 339.65Z" id="b21poJHWff"></path><path d="M109.29 227C112.05 227 114.29 229.24 114.29 232C114.29 240.1 114.29 259.4 114.29 267.5C114.29 270.26 112.05 272.5 109.29 272.5C108.29 272.5 110.29 272.5 109.29 272.5C106.53 272.5 104.29 270.26 104.29 267.5C104.29 259.4 104.29 240.1 104.29 232C104.29 229.24 106.53 227 109.29 227C110.29 227 108.29 227 109.29 227Z" id="bxoxwXJ8"></path><path d="M154.44 159.6C157.2 159.6 159.44 161.83 159.44 164.6C159.44 178.8 159.44 216.4 159.44 230.6C159.44 233.36 157.2 235.6 154.44 235.6C153.44 235.6 155.44 235.6 154.44 235.6C151.67 235.6 149.44 233.36 149.44 230.6C149.44 216.4 149.44 178.8 149.44 164.6C149.44 161.83 151.67 159.6 154.44 159.6C155.44 159.6 153.44 159.6 154.44 159.6Z" id="a1ezvEHWPX"></path><path d="M201.19 173.72C203.95 173.72 206.19 175.96 206.19 178.72C206.19 190.22 206.19 219.72 206.19 231.22C206.19 233.98 203.95 236.22 201.19 236.22C200.19 236.22 202.19 236.22 201.19 236.22C198.42 236.22 196.19 233.98 196.19 231.22C196.19 219.72 196.19 190.22 196.19 178.72C196.19 175.96 198.42 173.72 201.19 173.72C202.19 173.72 200.19 173.72 201.19 173.72Z" id="j2FSZ1o7pE"></path><path d="M248.25 197.84C251.01 197.84 253.25 200.08 253.25 202.84C253.25 209.52 253.25 224.54 253.25 231.22C253.25 233.98 251.01 236.22 248.25 236.22C247.25 236.22 249.25 236.22 248.25 236.22C245.49 236.22 243.25 233.98 243.25 231.22C243.25 224.54 243.25 209.52 243.25 202.84C243.25 200.08 245.49 197.84 248.25 197.84C249.25 197.84 247.25 197.84 248.25 197.84Z" id="b35ay1ZVvC"></path><path d="M87.64 101.34C91.34 101.34 94.34 104.34 94.34 108.04C94.34 109.7 94.34 107.98 94.34 109.64C94.34 113.34 91.34 116.34 87.64 116.34C74.98 116.34 43.69 116.34 31.03 116.34C27.33 116.34 24.34 113.34 24.34 109.64C24.34 107.98 24.34 109.7 24.34 108.04C24.34 104.34 27.33 101.34 31.03 101.34C43.69 101.34 74.98 101.34 87.64 101.34Z" id="cffinFTSI"></path><path d="M140.07 71.05C140.07 74.75 137.07 77.75 133.37 77.75C131.71 77.75 133.43 77.75 131.77 77.75C128.07 77.75 125.07 74.75 125.07 71.05C125.07 58.39 125.07 27.1 125.07 14.44C125.07 10.75 128.07 7.75 131.77 7.75C133.43 7.75 131.71 7.75 133.37 7.75C137.07 7.75 140.07 10.75 140.07 14.44C140.07 27.1 140.07 58.39 140.07 71.05Z" id="f8UimEpBq"></path><path d="M102.18 70.84C104.79 73.45 104.79 77.69 102.18 80.31C101 81.48 102.22 80.27 101.04 81.44C98.43 84.06 94.19 84.06 91.57 81.44C82.62 72.49 60.5 50.37 51.55 41.42C48.93 38.8 48.93 34.56 51.55 31.95C52.72 30.77 51.51 31.98 52.68 30.81C55.3 28.19 59.54 28.19 62.15 30.81C71.11 39.76 93.23 61.88 102.18 70.84Z" id="acECEgycy"></path><path d="M177.73 101.34C174.03 101.34 171.04 104.34 171.04 108.04C171.04 109.7 171.04 107.98 171.04 109.64C171.04 113.34 174.03 116.34 177.73 116.34C190.39 116.34 221.68 116.34 234.34 116.34C238.04 116.34 241.04 113.34 241.04 109.64C241.04 107.98 241.04 109.7 241.04 108.04C241.04 104.34 238.04 101.34 234.34 101.34C221.68 101.34 190.39 101.34 177.73 101.34Z" id="aJ76loNUz"></path><path d="M161.25 71.57C158.63 74.18 158.63 78.42 161.25 81.04C162.42 82.21 161.21 81 162.38 82.17C165 84.79 169.24 84.79 171.85 82.17C180.81 73.22 202.93 51.1 211.88 42.15C214.5 39.53 214.5 35.29 211.88 32.68C210.71 31.5 211.92 32.71 210.75 31.54C208.13 28.92 203.89 28.92 201.27 31.54C192.32 40.49 170.2 62.61 161.25 71.57Z" id="cjRTcyxPp"></path></defs><g><g><g><g><use xlink:href="#b21poJHWff" opacity="1" fill-opacity="0" stroke="#87ceeb" stroke-width="10" stroke-opacity="1"></use></g></g><g><use xlink:href="#bxoxwXJ8" opacity="1" fill="#87ceeb" fill-opacity="1"></use></g><g><use xlink:href="#a1ezvEHWPX" opacity="1" fill="#87ceeb" fill-opacity="1"></use></g><g><use xlink:href="#j2FSZ1o7pE" opacity="1" fill="#87ceeb" fill-opacity="1"></use></g><g><use xlink:href="#b35ay1ZVvC" opacity="1" fill="#87ceeb" fill-opacity="1"></use></g><g><use xlink:href="#cffinFTSI" opacity="1" fill="#87ceeb" fill-opacity="1"></use></g><g><use xlink:href="#f8UimEpBq" opacity="1" fill="#87ceeb" fill-opacity="1"></use></g><g><use xlink:href="#acECEgycy" opacity="1" fill="#87ceeb" fill-opacity="1"></use></g><g><use xlink:href="#aJ76loNUz" opacity="1" fill="#87ceeb" fill-opacity="1"></use></g><g><use xlink:href="#cjRTcyxPp" opacity="1" fill="#87ceeb" fill-opacity="1"></use></g></g></g></svg>