<?xml version="1.0" encoding="UTF-8" standalone="no"?>
<!DOCTYPE svg PUBLIC "-//W3C//DTD SVG 1.1//EN" "http://www.w3.org/Graphics/SVG/1.1/DTD/svg11.dtd">
<svg version="1.1" xmlns="http://www.w3.org/2000/svg" xmlns:xlink="http://www.w3.org/1999/xlink" preserveAspectRatio="xMidYMid meet" viewBox="0 0 268 268" width="268" height="268"><defs><path d="M262 134C262 204.65 204.65 262 134 262C63.35 262 6 204.65 6 134C6 63.35 63.35 6 134 6C204.65 6 262 63.35 262 134Z" id="b2P2HV7RN"></path><path d="M104.56 87.7C104.56 98.74 95.6 107.7 84.56 107.7C73.52 107.7 64.56 98.74 64.56 87.7C64.56 76.66 73.52 67.7 84.56 67.7C95.6 67.7 104.56 76.66 104.56 87.7Z" id="c2Xi9yuZUg"></path><path d="" id="aTZLts6Zo"></path><path d="" id="c4GrCQKTn"></path><path d="M107.81 172.04C125.39 176.93 143.97 176.86 161.51 171.86C166.37 170.47 169.15 169.67 177.77 167.21C181.81 166.06 185.82 169.09 185.82 173.29C185.82 182.41 185.82 171.9 185.82 173.64C185.82 198.64 165.56 218.91 140.56 218.91C128.89 218.91 138.84 218.91 127.09 218.91C102.28 218.91 82.18 198.8 82.18 173.99C82.18 172.18 82.18 182.41 82.18 173.29C82.18 169.08 86.19 166.03 90.24 167.16C99.13 169.63 102.68 170.62 107.81 172.04Z" id="b4qrGeKz3w"></path><path d="M203.44 87.7C203.44 98.74 194.48 107.7 183.44 107.7C172.4 107.7 163.44 98.74 163.44 87.7C163.44 76.66 172.4 67.7 183.44 67.7C194.48 67.7 203.44 76.66 203.44 87.7Z" id="a2FqCEbOaa"></path><path d="M201.02 357.59C201.02 357.59 200.86 357.59 200.66 357.59C200.46 357.59 200.29 357.59 200.29 357.59C200.29 357.59 200.46 357.59 200.66 357.59C200.86 357.59 200.95 357.59 201.02 357.59Z" id="daluvNlX7"></path></defs><g><g><g><use xlink:href="#b2P2HV7RN" opacity="1" fill="#ffffff" fill-opacity="0"></use><g><use xlink:href="#b2P2HV7RN" opacity="1" fill-opacity="0" stroke="#87ceeb" stroke-width="10" stroke-opacity="1"></use></g></g><g><use xlink:href="#c2Xi9yuZUg" opacity="1" fill="#87ceeb" fill-opacity="1"></use><g><use xlink:href="#c2Xi9yuZUg" opacity="1" fill-opacity="0" stroke="#87ceeb" stroke-width="5" stroke-opacity="1"></use></g></g><g><g><use xlink:href="#aTZLts6Zo" opacity="1" fill-opacity="0" stroke="#e11f51" stroke-width="10" stroke-opacity="1"></use></g></g><g><g><use xlink:href="#c4GrCQKTn" opacity="1" fill-opacity="0" stroke="#e11f51" stroke-width="10" stroke-opacity="1"></use></g></g><g><use xlink:href="#b4qrGeKz3w" opacity="1" fill="#ffffff" fill-opacity="0"></use><g><use xlink:href="#b4qrGeKz3w" opacity="1" fill-opacity="0" stroke="#87ceeb" stroke-width="9" stroke-opacity="1"></use></g></g><g><use xlink:href="#a2FqCEbOaa" opacity="1" fill="#87ceeb" fill-opacity="1"></use><g><use xlink:href="#a2FqCEbOaa" opacity="1" fill-opacity="0" stroke="#87ceeb" stroke-width="5" stroke-opacity="1"></use></g></g><g><use xlink:href="#daluvNlX7" opacity="1" fill="#80c7e4" fill-opacity="1"></use></g></g></g></svg>