<?xml version="1.0" encoding="UTF-8" standalone="no"?>
<!DOCTYPE svg PUBLIC "-//W3C//DTD SVG 1.1//EN" "http://www.w3.org/Graphics/SVG/1.1/DTD/svg11.dtd">
<svg version="1.1" xmlns="http://www.w3.org/2000/svg" xmlns:xlink="http://www.w3.org/1999/xlink" preserveAspectRatio="xMidYMid meet" viewBox="0 0 181 160" width="181" height="160"><defs><path d="" id="a5h9uUUb2d"></path><path d="" id="aDxXKLB7"></path><path d="M166.42 85.39C170.79 85.39 173.52 85.39 174.61 85.39C180.45 85.39 183.22 78.2 178.89 74.28C161.44 58.5 120.21 21.22 102.47 5.18C96.32 -0.38 86.96 -0.39 80.79 5.16C62.97 21.2 21.02 58.97 3.37 74.87C-0.74 78.57 1.87 85.39 7.4 85.39C8.61 85.39 11.61 85.39 16.42 85.39" id="c8LIRQhnUW"></path><path d="" id="d1SYxUPgl"></path><path d="M57.17 106.94C50.9 106.94 45.81 112.02 45.81 118.29C45.81 123.38 45.81 136.11 45.81 156.47C40.15 156.47 36.61 156.47 35.2 156.47C28.93 156.47 23.84 151.38 23.84 145.11C23.84 136.63 23.84 115.41 23.84 81.47L158.51 81.47C158.51 115.96 158.51 137.52 158.51 146.15C158.51 151.85 153.89 156.47 148.19 156.47C139.87 156.47 119.08 156.47 85.81 156.47C85.81 135.56 85.81 122.49 85.81 117.26C85.81 111.56 81.19 106.94 75.49 106.94C69.56 106.94 62.9 106.94 57.17 106.94Z" id="d2T4lbx2z4"></path><path d="" id="dbxJK6Xme"></path></defs><g><g><g><g><use xlink:href="#a5h9uUUb2d" opacity="1" fill-opacity="0" stroke="#000000" stroke-width="1" stroke-opacity="1"></use></g></g><g><g><use xlink:href="#aDxXKLB7" opacity="1" fill-opacity="0" stroke="#000000" stroke-width="1" stroke-opacity="1"></use></g></g><g><use xlink:href="#c8LIRQhnUW" opacity="1" fill="#87ceeb" fill-opacity="1"></use><g><use xlink:href="#c8LIRQhnUW" opacity="1" fill-opacity="0" stroke="#000000" stroke-width="0" stroke-opacity="1"></use></g></g><g><g><use xlink:href="#d1SYxUPgl" opacity="1" fill-opacity="0" stroke="#000000" stroke-width="1" stroke-opacity="1"></use></g></g><g><use xlink:href="#d2T4lbx2z4" opacity="1" fill="#87ceeb" fill-opacity="1"></use><g><use xlink:href="#d2T4lbx2z4" opacity="1" fill-opacity="0" stroke="#000000" stroke-width="0" stroke-opacity="1"></use></g></g><g><g><use xlink:href="#dbxJK6Xme" opacity="1" fill-opacity="0" stroke="#000000" stroke-width="1" stroke-opacity="1"></use></g></g></g></g></svg>