<?xml version="1.0" encoding="UTF-8" standalone="no"?>
<!DOCTYPE svg PUBLIC "-//W3C//DTD SVG 1.1//EN" "http://www.w3.org/Graphics/SVG/1.1/DTD/svg11.dtd">
<svg version="1.1" xmlns="http://www.w3.org/2000/svg" xmlns:xlink="http://www.w3.org/1999/xlink" preserveAspectRatio="xMidYMid meet" viewBox="0 0 180 120" width="180" height="120"><defs><path d="M166.01 5C170.97 5 175 9.03 175 13.99C175 34.19 175 85.81 175 106.01C175 110.97 170.97 115 166.01 115C133.81 115 46.19 115 13.99 115C9.03 115 5 110.97 5 106.01C5 85.81 5 34.19 5 13.99C5 9.03 9.03 5 13.99 5C46.19 5 133.81 5 166.01 5Z" id="f4SEQzL5L"></path><path d="" id="a1keqXwTqW"></path><path d="M172.88 9.38C134.38 37.83 110.32 55.61 100.69 62.72C94.98 66.94 87.19 66.94 81.48 62.72C71.86 55.61 47.79 37.83 9.29 9.38" id="a4FVYPWOm"></path></defs><g><g><g><use xlink:href="#f4SEQzL5L" opacity="1" fill="#ffffff" fill-opacity="1"></use><g><use xlink:href="#f4SEQzL5L" opacity="1" fill-opacity="0" stroke="#87ceeb" stroke-width="6" stroke-opacity="1"></use></g></g><g><g><use xlink:href="#a1keqXwTqW" opacity="1" fill-opacity="0" stroke="#1a8bae" stroke-width="1" stroke-opacity="1"></use></g></g><g><g><use xlink:href="#a4FVYPWOm" opacity="1" fill-opacity="0" stroke="#87ceeb" stroke-width="6" stroke-opacity="1"></use></g></g></g></g></svg>