<?xml version="1.0" encoding="UTF-8" standalone="no"?>
<!DOCTYPE svg PUBLIC "-//W3C//DTD SVG 1.1//EN" "http://www.w3.org/Graphics/SVG/1.1/DTD/svg11.dtd">
<svg version="1.1" xmlns="http://www.w3.org/2000/svg" xmlns:xlink="http://www.w3.org/1999/xlink" preserveAspectRatio="xMidYMid meet" viewBox="0 0 248 225" width="248" height="225"><defs><path d="" id="a2HCGKkU5t"></path><path d="M28.5 117.68C43.43 117.68 55.53 129.78 55.53 144.71C55.53 159.3 55.53 176.06 55.53 190.66C55.53 205.58 43.43 217.68 28.5 217.68C23.91 217.68 21.3 217.68 12.74 217.68C8.76 217.68 5.53 214.45 5.53 210.47C5.53 191.91 5.53 143.45 5.53 124.89C5.53 120.91 8.76 117.68 12.74 117.68C21.3 117.68 23.91 117.68 28.5 117.68Z" id="cs7ECI7RE"></path><path d="M108.3 121.45C114.29 127.72 122.59 131.27 131.26 131.27C137.82 131.27 144.87 131.27 151.66 131.27C158.49 131.27 164.03 136.81 164.03 143.64C164.03 143.78 164.03 144.13 164.03 144.7C164.03 144.7 164.03 144.7 164.03 144.7C164.03 152.2 157.95 158.28 150.46 158.28C140.9 158.28 123.8 158.28 113.75 158.28C107.63 158.28 102.67 163.24 102.67 169.35C102.67 172.39 102.67 169.7 102.67 172.55C102.67 179.18 108.04 184.55 114.67 184.55C129.24 184.55 141.38 184.55 151.06 184.55C173.62 184.55 194.48 172.51 205.75 152.96C208.5 148.18 209.62 146.24 215.14 136.67C218 131.71 222.23 127.7 227.32 125.11C230.07 123.71 226.74 125.41 228.54 124.49C234.95 121.24 242.71 124.78 244.44 131.76C245.07 134.29 243.95 129.76 244.67 132.67C246.53 140.14 245.12 148.05 240.81 154.42C231.59 168.04 221.45 183.02 214.91 192.67C202.28 211.33 181.21 222.51 158.68 222.51C152.87 222.51 138.33 222.51 115.07 222.51L66.11 218.13L66.11 118.13C75.52 115.72 81.41 114.21 83.76 113.61C92.21 111.44 101.18 114.01 107.21 120.31C109.3 122.5 106.13 119.18 108.3 121.45Z" id="l9wRBDvdd"></path><path d="M135.5 87.85L135.5 67.14L120.86 52.49L135.5 37.85L135.5 17.14L156.21 17.14L170.86 2.49L185.5 17.14L206.21 17.14L206.21 37.85L220.86 52.49L206.21 67.14L206.21 87.85L185.5 87.85L170.86 102.49L156.21 87.85L135.5 87.85Z" id="b5Y1lSfij"></path><path d="M135.5 90.77L135.5 70.05L120.86 55.41L135.5 40.77L135.5 20.05L156.21 20.05L170.86 5.41L185.5 20.05L206.21 20.05L206.21 40.77L220.86 55.41L206.21 70.05L206.21 90.77L185.5 90.77L170.86 105.41L156.21 90.77L135.5 90.77Z" id="a8CkbIJra"></path></defs><g><g><g><g><use xlink:href="#a2HCGKkU5t" opacity="1" fill-opacity="0" stroke="#000000" stroke-width="1" stroke-opacity="1"></use></g></g><g><use xlink:href="#cs7ECI7RE" opacity="1" fill="#87ceeb" fill-opacity="1"></use></g><g><use xlink:href="#l9wRBDvdd" opacity="1" fill="#87ceeb" fill-opacity="1"></use><g><use xlink:href="#l9wRBDvdd" opacity="1" fill-opacity="0" stroke="#000000" stroke-width="0" stroke-opacity="1"></use></g></g><g><use xlink:href="#b5Y1lSfij" opacity="1" fill="#e8e8e8" fill-opacity="1"></use><g><use xlink:href="#b5Y1lSfij" opacity="1" fill-opacity="0" stroke="#000000" stroke-width="1" stroke-opacity="0"></use></g></g><g><use xlink:href="#a8CkbIJra" opacity="1" fill="#87ceeb" fill-opacity="1"></use><g><use xlink:href="#a8CkbIJra" opacity="1" fill-opacity="0" stroke="#87ceeb" stroke-width="5" stroke-opacity="1"></use></g></g></g></g></svg>