<?xml version="1.0" encoding="UTF-8" standalone="no"?>
<!DOCTYPE svg PUBLIC "-//W3C//DTD SVG 1.1//EN" "http://www.w3.org/Graphics/SVG/1.1/DTD/svg11.dtd">
<svg version="1.1" xmlns="http://www.w3.org/2000/svg" xmlns:xlink="http://www.w3.org/1999/xlink" preserveAspectRatio="xMidYMid meet" viewBox="0 0 256 256" width="256" height="256"><defs><path d="M145.07 204.8C148.2 201.67 173.23 176.64 176.36 173.51C180.62 169.24 186.31 167.82 190.58 170.67C206.22 176.36 223.29 179.2 241.78 179.2C250.31 179.2 256 184.89 256 193.42C256 198.26 256 236.94 256 241.78C256 250.31 250.31 256 241.78 256C108.09 256 0 147.91 0 14.22C0 5.69 5.69 0 14.22 0C19.2 0 59.02 0 64 0C72.53 0 78.22 5.69 78.22 14.22C78.22 31.29 81.07 48.36 86.76 65.42C88.18 69.69 86.76 75.38 83.91 79.64C81.73 81.73 70.83 92.16 51.2 110.93L51.2 110.93C87.23 159.29 118.52 190.58 145.07 204.8Z" id="aE6nIM1QC"></path></defs><g><g><g><use xlink:href="#aE6nIM1QC" opacity="1" fill="#87ceeb" fill-opacity="1"></use><g><use xlink:href="#aE6nIM1QC" opacity="1" fill-opacity="0" stroke="#000000" stroke-width="1" stroke-opacity="0"></use></g></g></g></g></svg>