<?xml version="1.0" encoding="UTF-8" standalone="no"?>
<!DOCTYPE svg PUBLIC "-//W3C//DTD SVG 1.1//EN" "http://www.w3.org/Graphics/SVG/1.1/DTD/svg11.dtd">
<svg version="1.1" xmlns="http://www.w3.org/2000/svg" xmlns:xlink="http://www.w3.org/1999/xlink" preserveAspectRatio="xMidYMid meet" viewBox="0 0 15 15" width="32" height="32"><defs><path d="" id="b4HHMYvGng"></path><path d="M8.17 8.69L7.79 8.31" id="a8czO2KQd"></path><path d="M6.27 6.81L6.65 7.18" id="f3SAJ7XBwR"></path><path d="" id="a1MO5Qb8UZ"></path><path d="M6.07 7.96L7.02 8.9C4.12 11.84 2.3 13.68 1.58 14.41C1.42 14.57 1.17 14.57 1.01 14.41C0.88 14.28 0.75 14.15 0.61 14.02C0.46 13.88 0.46 13.64 0.61 13.5C1.33 12.76 3.16 10.91 6.07 7.96Z" id="a2N1uYn5sF"></path><path d="M8.79 9.32C8.96 9.5 8.97 9.78 8.79 9.96C8.72 10.03 8.8 9.95 8.73 10.03C8.57 10.19 8.3 10.19 8.14 10.03C7.44 9.34 5.64 7.56 4.94 6.87C4.78 6.7 4.78 6.44 4.94 6.28C5.02 6.2 4.98 6.24 5.06 6.16C5.2 6.01 5.44 6.01 5.59 6.16C6.29 6.85 8.1 8.64 8.79 9.32Z" id="aTsgiOcXr"></path><path d="M7.32 4.97C9.62 2.61 11.06 1.15 11.63 0.56C11.75 0.44 11.93 0.44 12.05 0.55C12.57 1.07 13.88 2.37 14.39 2.87C14.54 3.02 14.54 3.25 14.39 3.39C13.82 3.97 12.38 5.4 10.08 7.7L8.18 8.72L6.37 6.85L7.32 4.97Z" id="c3e9evKZ4"></path><path d="M10.05 7.62L7.3 4.9" id="cgClZWqVe"></path><path d="M8.65 4.8L12.06 1.38" id="d2ybpnC2gd"></path><path d="M10.2 6.35L13.61 2.93" id="a1Bq8ubFSY"></path><path d="M9.42 5.57L12.83 2.15" id="azHi2iOs"></path></defs><g><g><g><g><use xlink:href="#b4HHMYvGng" opacity="1" fill-opacity="0" stroke="#000000" stroke-width="1" stroke-opacity="1"></use></g></g><g><g><use xlink:href="#a8czO2KQd" opacity="1" fill-opacity="0" stroke="#000000" stroke-width="1" stroke-opacity="1"></use></g></g><g><g><use xlink:href="#f3SAJ7XBwR" opacity="1" fill-opacity="0" stroke="#000000" stroke-width="1" stroke-opacity="1"></use></g></g><g><g><use xlink:href="#a1MO5Qb8UZ" opacity="1" fill-opacity="0" stroke="#000000" stroke-width="1" stroke-opacity="1"></use></g></g><g><use xlink:href="#a2N1uYn5sF" opacity="1" fill="#ffffff" fill-opacity="1"></use><g><use xlink:href="#a2N1uYn5sF" opacity="1" fill-opacity="0" stroke="#87ceeb" stroke-width="0.5" stroke-opacity="1"></use></g></g><g><use xlink:href="#aTsgiOcXr" opacity="1" fill="#ffffff" fill-opacity="1"></use><g><use xlink:href="#aTsgiOcXr" opacity="1" fill-opacity="0" stroke="#87ceeb" stroke-width="0.5" stroke-opacity="1"></use></g></g><g><use xlink:href="#c3e9evKZ4" opacity="1" fill="#ffffff" fill-opacity="1"></use><g><use xlink:href="#c3e9evKZ4" opacity="1" fill-opacity="0" stroke="#87ceeb" stroke-width="0.5" stroke-opacity="1"></use></g></g><g><g><use xlink:href="#cgClZWqVe" opacity="1" fill-opacity="0" stroke="#87ceeb" stroke-width="0.5" stroke-opacity="1"></use></g></g><g><g><use xlink:href="#d2ybpnC2gd" opacity="1" fill-opacity="0" stroke="#87ceeb" stroke-width="0.5" stroke-opacity="1"></use></g></g><g><g><use xlink:href="#a1Bq8ubFSY" opacity="1" fill-opacity="0" stroke="#87ceeb" stroke-width="0.5" stroke-opacity="1"></use></g></g><g><g><use xlink:href="#azHi2iOs" opacity="1" fill-opacity="0" stroke="#87ceeb" stroke-width="0.5" stroke-opacity="1"></use></g></g></g></g></svg>