<?xml version="1.0" encoding="UTF-8" standalone="no"?>
<!DOCTYPE svg PUBLIC "-//W3C//DTD SVG 1.1//EN" "http://www.w3.org/Graphics/SVG/1.1/DTD/svg11.dtd">
<svg version="1.1" xmlns="http://www.w3.org/2000/svg" xmlns:xlink="http://www.w3.org/1999/xlink" preserveAspectRatio="xMidYMid meet" viewBox="0 0 264 264" width="264" height="264"><defs><path d="M24.81 112.42L13.74 83.66L41.48 72.23L41.48 42.16L71.22 42.16L82.65 14.26L111.41 24.84L132 4.52L152.92 24.84L180.69 15.04L192.46 42.16L222.2 42.16L222.2 72.23L250.26 83.66L238.86 112.42L260 132.52L238.86 153.27L250.26 181.38L222.2 193.14L222.2 223.21L192.46 223.21L180.69 250.78L152.92 238.89L132 259.48L111.41 238.89L82.65 250.78L71.22 223.21L41.48 223.21L41.48 193.14L13.74 181.38L24.81 153.27L4 132.52L24.81 112.42Z" id="a5oTGbdw3v"></path><path d="" id="a8PLEj7Mp"></path></defs><g><g><g><use xlink:href="#a5oTGbdw3v" opacity="1" fill="#ffffff" fill-opacity="1"></use><g><use xlink:href="#a5oTGbdw3v" opacity="1" fill-opacity="0" stroke="#eba687" stroke-width="5" stroke-opacity="1"></use></g></g><g><g><use xlink:href="#a8PLEj7Mp" opacity="1" fill-opacity="0" stroke="#87ceeb" stroke-width="5" stroke-opacity="1"></use></g></g></g></g></svg>