<?xml version="1.0" encoding="UTF-8" standalone="no"?>
<!DOCTYPE svg PUBLIC "-//W3C//DTD SVG 1.1//EN" "http://www.w3.org/Graphics/SVG/1.1/DTD/svg11.dtd">
<svg version="1.1" xmlns="http://www.w3.org/2000/svg" xmlns:xlink="http://www.w3.org/1999/xlink" preserveAspectRatio="xMidYMid meet" viewBox="0 0 360 360" width="360" height="360"><defs><path d="M354.02 307.64C354.02 332.48 333.86 352.64 309.02 352.64C284.19 352.64 264.02 332.48 264.02 307.64C264.02 282.81 284.19 262.64 309.02 262.64C333.86 262.64 354.02 282.81 354.02 307.64Z" id="bVpxkNdg"></path><path d="M97.03 71.64L295.01 269.64L269.41 295.24L71.43 97.23L97.03 71.64Z" id="bqvTiuDF1"></path><path d="M19.32 100.94C5.37 86.98 2.49 65.72 10.07 46.64C11.75 42.42 45.79 80.66 48.48 76.75C50.64 73.62 62.15 66.23 64.96 63.42C67.62 60.76 75.56 48.72 78.52 46.64C83.55 43.09 42.96 12.11 48.48 10.27C66.7 4.22 86.39 7.53 99.56 20.7C119.07 40.22 116.94 74.03 94.8 96.17C72.66 118.32 38.84 120.45 19.32 100.94Z" id="b18J9NdWbd"></path><path d="" id="b1dBmxzXYL"></path><path d="M280.23 318.19L287.36 287.72L317.2 278.78L339.91 300.31L332.78 330.78L302.94 339.72L280.23 318.19Z" id="aP2PgHyfu"></path></defs><g><g><g><use xlink:href="#bVpxkNdg" opacity="1" fill="#171820" fill-opacity="1"></use></g><g><use xlink:href="#bqvTiuDF1" opacity="1" fill="transparent" fill-opacity="1"></use><g><use xlink:href="#bqvTiuDF1" opacity="1" fill-opacity="0" stroke="#171820" stroke-width="17" stroke-opacity="1"></use></g></g><g><use xlink:href="#b18J9NdWbd" opacity="1" fill="#171820" fill-opacity="1"></use></g><g><g><use xlink:href="#b1dBmxzXYL" opacity="1" fill-opacity="0" stroke="#171820" stroke-width="11" stroke-opacity="1"></use></g></g><g><use xlink:href="#aP2PgHyfu" opacity="1" fill="#fdc029" fill-opacity="1"></use><g><use xlink:href="#aP2PgHyfu" opacity="1" fill-opacity="0" stroke="#171820" stroke-width="5" stroke-opacity="1"></use></g></g></g></g></svg>